<?xml version="1.0" encoding="utf-8"?>
<!-- Generator: Adobe Illustrator 28.1.0, SVG Export Plug-In . SVG Version: 6.00 Build 0)  -->
<svg version="1.1" id="Layer_1" xmlns="http://www.w3.org/2000/svg" xmlns:xlink="http://www.w3.org/1999/xlink" x="0px" y="0px"
	 viewBox="0 0 33 28" style="enable-background:new 0 0 33 28;" xml:space="preserve">
<style type="text/css">
	.st0{clip-path:url(#SVGID_00000042013694368362323250000004219675277420561578_);fill:#FFFFFF;}
</style>
<g>
	<defs>
		<rect id="SVGID_1_" x="0.9" y="0.6" width="31.6" height="26.9"/>
	</defs>
	<clipPath id="SVGID_00000057150175384104388000000017023730659321364132_">
		<use xlink:href="#SVGID_1_"  style="overflow:visible;"/>
	</clipPath>
	<path style="clip-path:url(#SVGID_00000057150175384104388000000017023730659321364132_);fill:#FFFFFF;" d="M14.4,9.7
		c0.3,0,0.5,0.2,0.5,0.5c0,0.3-0.2,0.5-0.5,0.5s-0.5-0.2-0.5-0.5C13.9,10,14.1,9.7,14.4,9.7 M14.4,12.1c1.1,0,1.9-0.8,1.9-1.9
		c0-1.1-0.8-1.9-1.9-1.9s-1.9,0.9-1.9,1.9C12.5,11.3,13.3,12.1,14.4,12.1"/>
	<path style="clip-path:url(#SVGID_00000057150175384104388000000017023730659321364132_);fill:#FFFFFF;" d="M19.8,9.7
		c0.3,0,0.5,0.2,0.5,0.5c0,0.3-0.2,0.5-0.5,0.5c-0.3,0-0.5-0.2-0.5-0.5C19.3,10,19.5,9.7,19.8,9.7 M19.8,12.1c1.1,0,1.9-0.8,1.9-1.9
		c0-1.1-0.8-1.9-1.9-1.9s-1.9,0.8-1.9,1.9C17.9,11.3,18.7,12.1,19.8,12.1"/>
	<path style="clip-path:url(#SVGID_00000057150175384104388000000017023730659321364132_);fill:#FFFFFF;" d="M25.2,9.7
		c0.3,0,0.5,0.2,0.5,0.5c0,0.3-0.2,0.5-0.5,0.5c-0.3,0-0.5-0.2-0.5-0.5C24.7,10,24.9,9.7,25.2,9.7 M25.2,12.1c1.1,0,1.9-0.8,1.9-1.9
		c0-1.1-0.8-1.9-1.9-1.9s-1.9,0.8-1.9,1.9C23.2,11.3,24.1,12.1,25.2,12.1"/>
	<path style="clip-path:url(#SVGID_00000057150175384104388000000017023730659321364132_);fill:#FFFFFF;" d="M31.1,23.1l-4-3.3
		c-0.1-0.1-0.3-0.2-0.5-0.2H8.5V2h22.5V23.1z M19.1,22.8H5.6c-0.2,0-0.3,0.1-0.4,0.2l-2.8,2.3V9.7h4.8v10.6c0,0.4,0.3,0.7,0.7,0.7
		h11.3V22.8z M31.8,0.6H7.9c-0.4,0-0.7,0.3-0.7,0.7v7H1.6c-0.4,0-0.7,0.3-0.7,0.7v17.7c0,0.3,0.2,0.5,0.4,0.6
		c0.2,0.1,0.6,0.1,0.7-0.1l3.7-3.1h14.1c0.4,0,0.7-0.3,0.7-0.7v-2.4h5.9l5,4.1c0.1,0.1,0.3,0.2,0.5,0.2c0.4,0,0.7-0.3,0.7-0.7V1.3
		C32.5,0.9,32.1,0.6,31.8,0.6"/>
</g>
</svg>
