<?xml version="1.0" encoding="utf-8"?>
<!-- Generator: Adobe Illustrator 28.1.0, SVG Export Plug-In . SVG Version: 6.00 Build 0)  -->
<svg version="1.1" id="Layer_1" xmlns="http://www.w3.org/2000/svg" xmlns:xlink="http://www.w3.org/1999/xlink" x="0px" y="0px"
	 viewBox="0 0 43 44" style="enable-background:new 0 0 43 44;" xml:space="preserve">
<style type="text/css">
	.st0{clip-path:url(#SVGID_00000047044797608647816620000011954180144363708074_);fill:#1D1D1B;}
</style>
<g>
	<defs>
		<rect id="SVGID_1_" x="8.1" y="2.3" width="27.1" height="39.6"/>
	</defs>
	<clipPath id="SVGID_00000036962332467714068500000016836090756268679837_">
		<use xlink:href="#SVGID_1_"  style="overflow:visible;"/>
	</clipPath>
	<path style="clip-path:url(#SVGID_00000036962332467714068500000016836090756268679837_);fill:#1D1D1B;" d="M22.2,9.3
		c-0.3,0-0.6-0.3-0.6-0.6c0-0.3,0.3-0.6,0.6-0.6s0.6,0.3,0.6,0.6C22.8,9,22.5,9.3,22.2,9.3 M22.2,7c-0.9,0-1.7,0.8-1.7,1.7
		c0,0.9,0.8,1.7,1.7,1.7c0.9,0,1.7-0.8,1.7-1.7C23.9,7.8,23.1,7,22.2,7"/>
	<path style="clip-path:url(#SVGID_00000036962332467714068500000016836090756268679837_);fill:#1D1D1B;" d="M26.3,7
		c-1,0-1.8-0.8-1.8-1.8s0.8-1.8,1.8-1.8s1.8,0.8,1.8,1.8S27.4,7,26.3,7 M29.3,5.2c0-1.6-1.3-2.9-2.9-2.9c-1.6,0-2.9,1.3-2.9,2.9
		c0,1.6,1.3,2.9,2.9,2.9C27.9,8.1,29.3,6.8,29.3,5.2"/>
	<path style="clip-path:url(#SVGID_00000036962332467714068500000016836090756268679837_);fill:#1D1D1B;" d="M27.1,10.1
		c0,0.5-0.4,0.9-0.9,0.9s-0.9-0.4-0.9-0.9c0-0.5,0.4-0.9,0.9-0.9S27.1,9.6,27.1,10.1 M24.2,10.1c0,1.1,0.9,2,2,2s2-0.9,2-2
		c0-1.1-0.9-2-2-2S24.2,9,24.2,10.1"/>
	<path style="clip-path:url(#SVGID_00000036962332467714068500000016836090756268679837_);fill:#1D1D1B;" d="M9.4,38.8l6.4-11.1
		l11.5,0L34,39.3c0.2,0.3,0.2,0.7,0,1c-0.2,0.3-0.5,0.5-0.9,0.5H10.5c-0.5,0-0.9-0.2-1.1-0.7C9.1,39.7,9.1,39.2,9.4,38.8 M19.5,21.3
		c0-0.1,0.1-0.2,0.1-0.3v-4.6h4V21c0,0.1,0,0.2,0.1,0.3l3,5.3l-10.2,0L19.5,21.3z M18.4,14.6c0-0.4,0.4-0.8,0.8-0.8H24
		c0.4,0,0.8,0.4,0.8,0.8c0,0.4-0.4,0.8-0.8,0.8h-4.9C18.7,15.4,18.4,15,18.4,14.6 M8.4,40.7c0.4,0.7,1.2,1.2,2.1,1.2h22.7
		c0.7,0,1.4-0.4,1.8-1c0.4-0.6,0.4-1.4,0-2.1l-6.9-11.9c0-0.1-0.1-0.1-0.2-0.2c0-0.1-0.1-0.2-0.2-0.3l-3.2-5.5v-4.6
		c0.7-0.3,1.2-0.9,1.2-1.8c0-1-0.8-1.9-1.9-1.9h-4.9c-1,0-1.9,0.8-1.9,1.9c0,0.8,0.5,1.5,1.2,1.8v4.6l-3.2,5.5
		c-0.1,0.1-0.1,0.2-0.2,0.3c-0.1,0-0.1,0.1-0.1,0.2L8.4,38.3C8,39,8,39.9,8.4,40.7"/>
</g>
</svg>
