<?xml version="1.0" encoding="utf-8"?>
<!-- Generator: Adobe Illustrator 28.1.0, SVG Export Plug-In . SVG Version: 6.00 Build 0)  -->
<svg version="1.1" id="Layer_1" xmlns="http://www.w3.org/2000/svg" xmlns:xlink="http://www.w3.org/1999/xlink" x="0px" y="0px"
	 viewBox="0 0 43 44" style="enable-background:new 0 0 43 44;" xml:space="preserve">
<style type="text/css">
	.st0{clip-path:url(#SVGID_00000005256736745855849400000012569397691740361624_);fill:#1D1D1B;}
</style>
<g>
	<defs>
		<rect id="SVGID_1_" x="-0.3" y="10.9" width="43.4" height="25.2"/>
	</defs>
	<clipPath id="SVGID_00000064322684441889911660000000925004343624135349_">
		<use xlink:href="#SVGID_1_"  style="overflow:visible;"/>
	</clipPath>
	<path style="clip-path:url(#SVGID_00000064322684441889911660000000925004343624135349_);fill:#1D1D1B;" d="M19.5,19.4
		c0-0.3,0.8-0.7,2-0.7c1.2,0,2,0.4,2,0.7s-0.8,0.7-2,0.7C20.2,20.2,19.5,19.7,19.5,19.4 M2.3,19c4.6-1.4,15.8-5.6,18.8-6.8l19.6,6.7
		l-19.3,8.4L8.7,21.8l10.8-1.4c0.5,0.3,1.2,0.5,2,0.5c1.5,0,2.6-0.6,2.6-1.4c0-0.8-1.1-1.4-2.6-1.4c-1.3,0-2.3,0.4-2.5,1.1L6.4,20.8
		L2.3,19z M32.1,33.9c0,0.5-0.4,0.9-0.9,0.9h-18c-0.5,0-0.9-0.4-0.9-0.9v-9.3l9,3.9c0.1,0,0.2,0.1,0.3,0.1s0.2,0,0.3-0.1l10.4-4.5
		V33.9z M5.3,31.1l0.7-3.9c0-0.2,0-0.5-0.2-0.6c-0.1-0.1-0.2-0.2-0.2-0.4c0-0.3,0.2-0.5,0.5-0.5s0.5,0.2,0.5,0.5
		c0,0.1-0.1,0.3-0.1,0.3c-0.1,0.1-0.2,0.3-0.2,0.5l0.6,4H5.3z M5.7,24.5c-0.8,0.2-1.4,0.9-1.4,1.7c0,0.4,0.1,0.8,0.4,1.1l-0.7,4.3
		c0,0.2,0,0.4,0.1,0.5c0.1,0.1,0.3,0.2,0.5,0.2h3c0.2,0,0.4-0.1,0.5-0.2c0.1-0.1,0.2-0.3,0.2-0.5l-0.6-4.5c0.2-0.3,0.2-0.6,0.2-0.9
		c0-0.6-0.3-1.2-0.8-1.5v-2.3l4,1.7v9.8c0,1.2,1,2.2,2.2,2.2h18c1.2,0,2.2-1,2.2-2.2V23.5l9.4-4.1c0.2-0.1,0.4-0.3,0.4-0.6
		c0-0.3-0.2-0.5-0.4-0.6l-21.4-7.3c-0.1,0-0.3,0-0.4,0c-7.3,2.8-19.4,7.2-20.5,7.3c-0.3,0-0.6,0.2-0.6,0.5c-0.1,0.3,0.1,0.6,0.4,0.7
		l5.6,2.4V24.5z"/>
</g>
</svg>
