<?xml version="1.0" encoding="utf-8"?>
<!-- Generator: Adobe Illustrator 28.1.0, SVG Export Plug-In . SVG Version: 6.00 Build 0)  -->
<svg version="1.1" id="Layer_1" xmlns="http://www.w3.org/2000/svg" xmlns:xlink="http://www.w3.org/1999/xlink" x="0px" y="0px"
	 viewBox="0 0 43 44" style="enable-background:new 0 0 43 44;" xml:space="preserve">
<style type="text/css">
	.st0{clip-path:url(#SVGID_00000036248917961754213560000002778569687812695999_);fill:#1D1D1B;}
</style>
<g>
	<defs>
		<rect id="SVGID_1_" x="10.4" y="1" width="22.6" height="42.1"/>
	</defs>
	<clipPath id="SVGID_00000093144808983389741930000004979589192460491433_">
		<use xlink:href="#SVGID_1_"  style="overflow:visible;"/>
	</clipPath>
	<path style="clip-path:url(#SVGID_00000093144808983389741930000004979589192460491433_);fill:#1D1D1B;" d="M22.2,13.3
		c4.6,0,8.3,3.7,8.3,8.3c0,1.2-0.1,2.2-0.4,3.6c-0.7,2.7-2.3,6.5-2.9,7.8h-10c-0.6-1.3-2.2-5.1-2.9-7.8c-0.4-1.5-0.4-2.5-0.4-3.6
		C13.9,17,17.6,13.3,22.2,13.3 M27.7,41.4c-0.2,0.2-0.5,0.3-0.8,0.3l-8.8-0.1c-0.5,0-1-0.4-1-0.8c0-0.3,0.3-0.6,0.7-0.7
		c0.3-0.1,0.6-0.4,0.6-0.8c0-0.4-0.3-0.6-0.6-0.7c-0.5-0.1-0.8-0.4-0.8-0.8c0-0.3,0.3-0.6,0.6-0.7c0.3-0.1,0.5-0.4,0.5-0.7
		c0-0.3-0.2-0.6-0.5-0.7c-0.4-0.1-0.6-0.4-0.6-0.7c0-0.1,0.1-0.3,0.1-0.4h10.4c0.1,0.1,0.2,0.3,0.2,0.5c0,0.3-0.3,0.6-0.6,0.7
		c-0.3,0.1-0.5,0.4-0.5,0.7c0,0.3,0.2,0.6,0.5,0.7c0.4,0.1,0.6,0.4,0.6,0.7c0,0.3-0.3,0.6-0.7,0.7c-0.3,0.1-0.6,0.4-0.6,0.8
		c0,0.4,0.3,0.6,0.6,0.7c0.5,0.1,0.8,0.4,0.8,0.8C27.9,41.1,27.8,41.3,27.7,41.4 M12.4,21.6c0,1.3,0.1,2.4,0.5,4
		c0.7,2.8,2.4,6.7,3,8c-0.3,0.4-0.4,0.8-0.4,1.2c0,0.5,0.2,1.1,0.6,1.5c-0.3,0.4-0.6,0.9-0.6,1.4c0,0.6,0.3,1.2,0.7,1.6
		c-0.3,0.4-0.5,0.9-0.5,1.4c0,1.3,1.1,2.3,2.4,2.3l8.8,0.1h0c0.7,0,1.3-0.3,1.8-0.7c0.4-0.4,0.7-1,0.7-1.5c0-0.6-0.3-1.2-0.7-1.6
		c0.3-0.4,0.5-0.9,0.5-1.4c0-0.5-0.2-1.1-0.6-1.5c0.3-0.4,0.6-0.9,0.6-1.4c0-0.6-0.2-1.1-0.6-1.5c0.6-1.4,2.3-5.2,3-7.9
		c0.4-1.6,0.5-2.7,0.5-4c0-5.4-4.4-9.8-9.8-9.8C16.8,11.8,12.4,16.2,12.4,21.6"/>
	<path style="clip-path:url(#SVGID_00000093144808983389741930000004979589192460491433_);fill:#1D1D1B;" d="M15.7,10.7
		C15.7,10.8,15.7,10.8,15.7,10.7c-0.1,0-0.1,0-0.2,0l-4.4-5.6c0,0,0-0.1,0-0.1c0,0,0-0.1,0-0.1c0,0,0.1,0,0.1,0c0,0,0,0,0,0
		c0,0,0.1,0,0.1,0l4.4,5.6C15.8,10.6,15.8,10.6,15.7,10.7C15.8,10.7,15.8,10.7,15.7,10.7 M11.9,4.5c-0.1-0.2-0.3-0.3-0.6-0.3
		c-0.2,0-0.5,0-0.6,0.2c-0.2,0.1-0.3,0.4-0.3,0.6c0,0.2,0,0.5,0.2,0.6l4.4,5.6c0.2,0.2,0.4,0.3,0.7,0.3c0,0,0,0,0,0h0
		c0.2,0,0.4-0.1,0.5-0.2c0.2-0.1,0.3-0.3,0.3-0.6c0-0.2,0-0.5-0.2-0.6L11.9,4.5z"/>
	<path style="clip-path:url(#SVGID_00000093144808983389741930000004979589192460491433_);fill:#1D1D1B;" d="M28.4,10.5L32,5
		c0,0,0.1,0,0.1-0.1c0,0,0.1,0,0.1,0c0,0,0,0.1,0.1,0.1c0,0,0,0.1,0,0.1l-3.7,5.5c0,0-0.1,0.1-0.1,0.1c0,0,0,0-0.1,0
		C28.4,10.7,28.3,10.6,28.4,10.5C28.3,10.6,28.3,10.6,28.4,10.5 M28,11.3L28,11.3c0.1,0.1,0.3,0.1,0.5,0.1c0,0,0,0,0,0
		c0.3,0,0.5-0.2,0.7-0.4l3.7-5.5C33,5.4,33,5.1,33,4.9c0-0.2-0.2-0.4-0.4-0.6c-0.2-0.1-0.4-0.2-0.7-0.1c-0.2,0-0.4,0.2-0.6,0.4
		l-3.7,5.5c-0.1,0.2-0.2,0.4-0.1,0.7C27.7,11,27.8,11.2,28,11.3"/>
	<path style="clip-path:url(#SVGID_00000093144808983389741930000004979589192460491433_);fill:#1D1D1B;" d="M21.9,9.1l0.3-7.3
		c0,0,0-0.1,0-0.1c0,0,0,0,0.1,0c0,0,0.1,0,0.1,0c0,0,0,0,0,0.1l-0.3,7.3c0,0.1-0.1,0.1-0.1,0.1h0C22,9.3,22,9.3,21.9,9.1
		C22,9.2,21.9,9.2,21.9,9.1 M22,10C22,10,22.1,10,22,10C22.1,10,22.1,10,22,10c0.5,0,0.9-0.4,0.9-0.8l0.3-7.3c0-0.2-0.1-0.5-0.2-0.6
		C22.9,1.1,22.6,1,22.4,1C22.2,1,22,1,21.8,1.2c-0.2,0.2-0.3,0.4-0.3,0.6l-0.3,7.3c0,0.2,0.1,0.5,0.2,0.6C21.6,9.9,21.8,10,22,10
		L22,10z"/>
	<path style="clip-path:url(#SVGID_00000093144808983389741930000004979589192460491433_);fill:#1D1D1B;" d="M16.9,20.2L16.9,20.2
		c0.4,0,0.8-0.3,0.9-0.8c0-0.2,0-0.4,0.1-0.6c0.3-1.3,1.4-1.9,2.3-2.1c0.4-0.1,0.7-0.1,0.7-0.1c0.4,0,0.8-0.4,0.8-0.8
		c0-0.4-0.4-0.8-0.8-0.8c-1.5,0-4.5,1-4.7,4.3C16.1,19.8,16.5,20.2,16.9,20.2"/>
</g>
</svg>
