<?xml version="1.0" encoding="utf-8"?>
<!-- Generator: Adobe Illustrator 28.1.0, SVG Export Plug-In . SVG Version: 6.00 Build 0)  -->
<svg version="1.1" id="Layer_1" xmlns="http://www.w3.org/2000/svg" xmlns:xlink="http://www.w3.org/1999/xlink" x="0px" y="0px"
	 viewBox="0 0 33 32" style="enable-background:new 0 0 33 32;" xml:space="preserve">
<style type="text/css">
	.st0{clip-path:url(#SVGID_00000088121472589381004790000004105335885541792922_);fill:#1D1D1B;}
</style>
<g>
	<defs>
		<rect id="SVGID_1_" x="4.4" y="1.3" width="24.6" height="29.6"/>
	</defs>
	<clipPath id="SVGID_00000122703716249146934740000001762916416029591439_">
		<use xlink:href="#SVGID_1_"  style="overflow:visible;"/>
	</clipPath>
	<path style="clip-path:url(#SVGID_00000122703716249146934740000001762916416029591439_);fill:#1D1D1B;" d="M12.6,29
		c-0.8,0-1.5-0.7-1.5-1.5c0-0.8,0.7-1.5,1.5-1.5c0.8,0,1.5,0.7,1.5,1.5C14.1,28.4,13.4,29,12.6,29 M24.3,13.5l0.8,9.6l-9.6,0.8
		l-0.8-9.6L24.3,13.5z M28,22.8l-1.1,0.1L26,12.4c0-0.5-0.5-0.9-1-0.8l-11.4,1c-0.2,0-0.5,0.1-0.6,0.3c-0.2,0.2-0.2,0.4-0.2,0.7
		l0.9,10.5l-0.8,0.1l-1.9-22c0-0.5-0.5-0.9-1-0.8L5.2,1.7c-0.5,0-0.9,0.5-0.8,1c0,0.5,0.5,0.9,1,0.8l3.8-0.3l1.9,21.4
		c-1,0.6-1.8,1.7-1.8,2.9c0,1.8,1.5,3.3,3.3,3.3c1.8,0,3.3-1.5,3.3-3.3c0-0.7-0.2-1.3-0.5-1.8l12.8-1.1c0.5,0,0.9-0.5,0.8-1
		C29,23.1,28.5,22.8,28,22.8"/>
</g>
</svg>
