<?xml version="1.0" encoding="utf-8"?>
<!-- Generator: Adobe Illustrator 28.1.0, SVG Export Plug-In . SVG Version: 6.00 Build 0)  -->
<svg version="1.1" id="Layer_1" xmlns="http://www.w3.org/2000/svg" xmlns:xlink="http://www.w3.org/1999/xlink" x="0px" y="0px"
	 viewBox="0 0 43 44" style="enable-background:new 0 0 43 44;" xml:space="preserve">
<style type="text/css">
	.st0{clip-path:url(#SVGID_00000145045175626822968650000016221213470643149730_);fill:#1D1D1B;}
</style>
<g>
	<defs>
		<rect id="SVGID_1_" x="2.9" y="9.1" width="36" height="30.3"/>
	</defs>
	<clipPath id="SVGID_00000036966676305879434650000016116311429632422069_">
		<use xlink:href="#SVGID_1_"  style="overflow:visible;"/>
	</clipPath>
	<path style="clip-path:url(#SVGID_00000036966676305879434650000016116311429632422069_);fill:#1D1D1B;" d="M37,23H35c0,0,0,0,0,0
		H6.8c0,0,0,0,0,0H4.9v-3.6H37V23z M31.4,37.4H10.4L8,25h25.8L31.4,37.4z M37.9,17.5h-5.4l-8.1-8.1C24,9,23.4,9,23,9.4
		c-0.4,0.4-0.4,1,0,1.4l6.8,6.8H12l6.8-6.8c0.4-0.4,0.4-1,0-1.4c-0.4-0.4-1-0.4-1.4,0l-8.1,8.1H3.9c-0.5,0-1,0.4-1,1V24
		c0,0.5,0.4,1,1,1H6l2.7,13.6c0.1,0.5,0.5,0.8,1,0.8h22.5c0.5,0,0.9-0.3,1-0.8L35.8,25h2.1c0.5,0,1-0.4,1-1v-5.5
		C38.9,17.9,38.5,17.5,37.9,17.5"/>
	<path style="clip-path:url(#SVGID_00000036966676305879434650000016116311429632422069_);fill:#1D1D1B;" d="M13.9,34.2
		c0.1,0.5,0.5,0.8,1,0.8c0,0,0.1,0,0.1,0c0.5-0.1,0.9-0.6,0.8-1.1l-0.8-5.6c-0.1-0.5-0.6-0.9-1.1-0.8c-0.5,0.1-0.9,0.6-0.8,1.1
		L13.9,34.2z"/>
	<path style="clip-path:url(#SVGID_00000036966676305879434650000016116311429632422069_);fill:#1D1D1B;" d="M27,35.1
		c0,0,0.1,0,0.1,0c0.5,0,0.9-0.3,1-0.8l0.8-5.6c0.1-0.5-0.3-1-0.8-1.1c-0.5-0.1-1,0.3-1.1,0.8L26.2,34C26.1,34.5,26.5,35,27,35.1"/>
	<path style="clip-path:url(#SVGID_00000036966676305879434650000016116311429632422069_);fill:#1D1D1B;" d="M20.9,35
		c0.5,0,1-0.4,1-1v-5.6c0-0.5-0.4-1-1-1s-1,0.4-1,1v5.6C19.9,34.6,20.4,35,20.9,35"/>
</g>
</svg>
