<?xml version="1.0" encoding="utf-8"?>
<!-- Generator: Adobe Illustrator 28.1.0, SVG Export Plug-In . SVG Version: 6.00 Build 0)  -->
<svg version="1.1" id="Layer_1" xmlns="http://www.w3.org/2000/svg" xmlns:xlink="http://www.w3.org/1999/xlink" x="0px" y="0px"
	 viewBox="0 0 43 44" style="enable-background:new 0 0 43 44;" xml:space="preserve">
<style type="text/css">
	.st0{clip-path:url(#SVGID_00000143592377841436280200000018191720926823815069_);fill:#050505;}
</style>
<g>
	<defs>
		<rect id="SVGID_1_" x="8.5" y="4.7" width="25.4" height="35.1"/>
	</defs>
	<clipPath id="SVGID_00000000915206481117547850000010493990574512135047_">
		<use xlink:href="#SVGID_1_"  style="overflow:visible;"/>
	</clipPath>
	<path style="clip-path:url(#SVGID_00000000915206481117547850000010493990574512135047_);fill:#050505;" d="M14.4,8.9
		c0-0.3,0.2-0.6,0.5-0.6h2.8c0.4,0,0.7-0.3,0.7-0.7V7.5C18.4,6.7,19,6,19.9,6h3c0.8,0,1.5,0.7,1.5,1.5v0.2v0c0,0.4,0.3,0.7,0.7,0.7
		h2.4c0.3,0,0.5,0.3,0.5,0.6v0.6c0,0,0,0,0,0c0,0,0,0,0,0v1.6c0,0.3-0.2,0.6-0.5,0.6H14.9c-0.3,0-0.5-0.3-0.5-0.6V9.5V8.9z
		 M32.6,10.7v27.2c0,0.3-0.2,0.5-0.5,0.5H10.3c-0.3,0-0.5-0.2-0.5-0.5V10.7c0-0.3,0.2-0.5,0.5-0.5h2.8v0.2h-2
		c-0.4,0-0.7,0.3-0.7,0.7v25.4c0,0.4,0.3,0.7,0.7,0.7h20.1c0.4,0,0.7-0.3,0.7-0.7V11c0-0.4-0.3-0.7-0.7-0.7h-1.9v-0.2H32
		C32.3,10.2,32.6,10.4,32.6,10.7 M29.2,11.7h1.3v24H11.8v-24h1.4c0.2,0.8,0.9,1.3,1.7,1.3h12.6C28.3,13,29,12.5,29.2,11.7 M13.1,8.8
		h-2.8c-1,0-1.9,0.8-1.9,1.9v27.2c0,1,0.8,1.9,1.9,1.9H32c1,0,1.9-0.8,1.9-1.9V10.7c0-1-0.8-1.9-1.9-1.9h-2.8
		c-0.1-1-0.8-1.8-1.8-1.8h-1.8c-0.2-1.3-1.4-2.3-2.8-2.3h-3c-1.4,0-2.6,1-2.8,2.3h-2.2C13.9,7,13.1,7.8,13.1,8.8"/>
	<path style="clip-path:url(#SVGID_00000000915206481117547850000010493990574512135047_);fill:#050505;" d="M21,7.5
		c0.3,0,0.6,0.3,0.6,0.6c0,0.3-0.3,0.6-0.6,0.6c-0.3,0-0.6-0.3-0.6-0.6C20.4,7.7,20.7,7.5,21,7.5 M21,10c1.1,0,1.9-0.9,1.9-1.9
		C23,7,22.1,6.1,21,6.1c-1.1,0-1.9,0.9-1.9,1.9C19.1,9.1,20,10,21,10"/>
	<path style="clip-path:url(#SVGID_00000000915206481117547850000010493990574512135047_);fill:#050505;" d="M12.9,16.7
		c0,0.4,0.3,0.7,0.7,0.7h15c0.4,0,0.7-0.3,0.7-0.7S28.9,16,28.5,16h-15C13.2,16,12.9,16.3,12.9,16.7"/>
	<path style="clip-path:url(#SVGID_00000000915206481117547850000010493990574512135047_);fill:#050505;" d="M22.5,20.6h-9
		c-0.4,0-0.7,0.3-0.7,0.7c0,0.4,0.3,0.7,0.7,0.7h9c0.4,0,0.7-0.3,0.7-0.7C23.2,20.9,22.9,20.6,22.5,20.6"/>
	<path style="clip-path:url(#SVGID_00000000915206481117547850000010493990574512135047_);fill:#050505;" d="M22.5,25.7h-9
		c-0.4,0-0.7,0.3-0.7,0.7c0,0.4,0.3,0.7,0.7,0.7h9c0.4,0,0.7-0.3,0.7-0.7C23.2,26,22.9,25.7,22.5,25.7"/>
	<path style="clip-path:url(#SVGID_00000000915206481117547850000010493990574512135047_);fill:#050505;" d="M22.5,30.7h-9
		c-0.4,0-0.7,0.3-0.7,0.7c0,0.4,0.3,0.7,0.7,0.7h9c0.4,0,0.7-0.3,0.7-0.7C23.2,31,22.9,30.7,22.5,30.7"/>
	<path style="clip-path:url(#SVGID_00000000915206481117547850000010493990574512135047_);fill:#050505;" d="M27.5,19.1l-1.7,1.8
		l-0.5-0.6c-0.2-0.3-0.6-0.4-0.9-0.1c-0.3,0.2-0.4,0.6-0.1,0.9l0.9,1.3c0.1,0.2,0.3,0.3,0.5,0.3c0,0,0,0,0,0c0.2,0,0.4-0.1,0.5-0.2
		l2.2-2.3c0.3-0.3,0.2-0.7,0-0.9C28.2,18.9,27.7,18.9,27.5,19.1"/>
	<path style="clip-path:url(#SVGID_00000000915206481117547850000010493990574512135047_);fill:#050505;" d="M27.5,24.4l-1.7,1.8
		l-0.5-0.6c-0.2-0.3-0.6-0.4-0.9-0.1c-0.3,0.2-0.4,0.6-0.1,0.9l0.9,1.3c0.1,0.2,0.3,0.3,0.5,0.3c0,0,0,0,0,0c0.2,0,0.4-0.1,0.5-0.2
		l2.2-2.3c0.3-0.3,0.2-0.7,0-0.9C28.2,24.2,27.7,24.2,27.5,24.4"/>
	<path style="clip-path:url(#SVGID_00000000915206481117547850000010493990574512135047_);fill:#050505;" d="M27.5,29.7l-1.7,1.8
		l-0.5-0.6c-0.2-0.3-0.6-0.4-0.9-0.1c-0.3,0.2-0.4,0.6-0.1,0.9l0.9,1.3c0.1,0.2,0.3,0.3,0.5,0.3c0,0,0,0,0,0c0.2,0,0.4-0.1,0.5-0.2
		l2.2-2.3c0.3-0.3,0.2-0.7,0-0.9C28.2,29.4,27.7,29.4,27.5,29.7"/>
</g>
</svg>
